<?xml version="1.0" encoding="utf-8"?>
<!-- Generator: Adobe Illustrator 16.0.4, SVG Export Plug-In . SVG Version: 6.00 Build 0)  -->
<!DOCTYPE svg PUBLIC "-//W3C//DTD SVG 1.1//EN" "http://www.w3.org/Graphics/SVG/1.1/DTD/svg11.dtd">
<svg version="1.1" id="Layer_1" xmlns="http://www.w3.org/2000/svg" xmlns:xlink="http://www.w3.org/1999/xlink" x="0px" y="0px"
	 width="132px" height="331.167px" viewBox="0 0 132 331.167" enable-background="new 0 0 132 331.167" xml:space="preserve">
<g id="Layer_2_1_">
</g>
<g id="Layer_1_1_">
	<g id="blank_copy" display="none">
		<path display="inline" d="M49.5,264.5c-8.85,0-16,7.15-16,16c0,8.851,7.15,16,16,16s16-7.149,16-16
			C65.5,271.65,58.35,264.5,49.5,264.5z"/>
		<path display="inline" d="M82.5,264.5c-8.85,0-16,7.15-16,16c0,8.851,7.15,16,16,16s16-7.149,16-16
			C98.5,271.65,91.35,264.5,82.5,264.5z"/>
		<path display="inline" fill="#eb6f25" d="M115.5,264.5c-8.85,0-16,7.15-16,16c0,8.851,7.15,16,16,16s16-7.149,16-16
			C131.5,271.65,124.35,264.5,115.5,264.5z"/>
		<path display="inline" fill="#FFFFFF" d="M16.5,264.5c-8.85,0-16,7.15-16,16c0,8.851,7.15,16,16,16s16-7.149,16-16
			C32.5,271.65,25.35,264.5,16.5,264.5z"/>
	</g>
	<path d="M82.458,297.25c-8.851,0-16,7.149-16,16c0,8.85,7.149,16,16,16s16-7.15,16-16C98.458,304.399,91.309,297.25,82.458,297.25z
		"/>
	<g id="Flickr">
		<path d="M82.5,264.5c-8.85,0-16,7.15-16,16c0,8.851,7.15,16,16,16s16-7.149,16-16C98.5,271.65,91.35,264.5,82.5,264.5z"/>
		<path fill="#eb6f25" d="M115.5,264.5c-8.85,0-16,7.15-16,16c0,8.851,7.15,16,16,16s16-7.149,16-16
			C131.5,271.65,124.35,264.5,115.5,264.5z M110.8,284.9c-2.149,0-3.899-1.75-3.899-3.9c0-2.149,1.75-3.899,3.899-3.899
			c2.15,0,3.9,1.75,3.9,3.899C114.7,283.15,112.95,284.9,110.8,284.9z M121.2,284.9c-2.15,0-3.9-1.75-3.9-3.9
			c0-2.149,1.75-3.899,3.9-3.899c2.149,0,3.899,1.75,3.899,3.899C125.1,283.15,123.35,284.9,121.2,284.9z"/>
		<g>
			<circle fill="#FFFFFF" cx="77.3" cy="281" r="3.9"/>
			<circle fill="#FFFFFF" cx="87.7" cy="281" r="3.9"/>
		</g>
		<path d="M49.5,264.5c-8.85,0-16,7.15-16,16c0,8.851,7.15,16,16,16s16-7.149,16-16C65.5,271.65,58.35,264.5,49.5,264.5z
			 M44.8,284.9c-2.15,0-3.9-1.75-3.9-3.9c0-2.149,1.75-3.899,3.9-3.899c2.15,0,3.9,1.75,3.9,3.899
			C48.7,283.15,46.95,284.9,44.8,284.9z M55.2,284.9c-2.15,0-3.9-1.75-3.9-3.9c0-2.149,1.75-3.899,3.9-3.899
			c2.15,0,3.9,1.75,3.9,3.899C59.1,283.15,57.35,284.9,55.2,284.9z"/>
		<path fill="#FFFFFF" d="M16.5,264.5c-8.85,0-16,7.15-16,16c0,8.851,7.15,16,16,16s16-7.149,16-16
			C32.5,271.65,25.35,264.5,16.5,264.5z M11.25,284.9c-2.15,0-3.9-1.75-3.9-3.9c0-2.149,1.75-3.899,3.9-3.899s3.9,1.75,3.9,3.899
			C15.15,283.15,13.45,284.9,11.25,284.9z M21.65,284.9c-2.15,0-3.9-1.75-3.9-3.9c0-2.149,1.75-3.899,3.9-3.899s3.9,1.75,3.9,3.899
			C25.55,283.15,23.8,284.9,21.65,284.9z"/>
	</g>
	<g id="sina_weibo">
		<path d="M82.5,231.5c-8.85,0-16,7.15-16,16c0,8.851,7.15,16,16,16s16-7.149,16-16C98.5,238.65,91.35,231.5,82.5,231.5z"/>
		<g>
			<path d="M47.05,250.65c-0.55-0.199-1.25,0-1.55,0.5c-0.35,0.5-0.2,1.148,0.35,1.398c0.55,0.25,1.25,0,1.6-0.5
				C47.75,251.5,47.55,250.85,47.05,250.65z"/>
			<path d="M47.5,246.5c-3.45,0.351-6.1,2.451-5.85,4.75c0.25,2.25,3.2,3.851,6.65,3.5c3.45-0.35,6.1-2.449,5.85-4.75
				C53.95,247.701,51,246.15,47.5,246.5z M50.55,251.85c-0.7,1.601-2.75,2.45-4.45,1.899c-1.65-0.549-2.35-2.199-1.65-3.649
				c0.7-1.449,2.6-2.25,4.2-1.851C50.4,248.701,51.25,250.3,50.55,251.85z"/>
			<path d="M48.35,250.1c-0.2-0.101-0.45,0-0.6,0.2c-0.1,0.199-0.05,0.449,0.15,0.5c0.2,0.101,0.5,0,0.6-0.2
				C48.65,250.4,48.55,250.15,48.35,250.1z"/>
			<path d="M49.5,231.5c-8.85,0-16,7.15-16,16c0,8.851,7.15,16,16,16s16-7.149,16-16C65.5,238.65,58.35,231.5,49.5,231.5z
				 M48.3,255.951c-4.35,0-8.75-2.102-8.75-5.551c0-1.801,1.15-3.9,3.1-5.852c2.65-2.648,5.7-3.85,6.85-2.699
				c0.5,0.5,0.55,1.4,0.25,2.449c-0.15,0.551,0.5,0.25,0.5,0.25c2.15-0.898,4-0.949,4.65,0.051c0.35,0.5,0.35,1.25,0,2.102
				c-0.15,0.398,0.05,0.449,0.35,0.549c1.2,0.351,2.55,1.25,2.55,2.851C57.8,252.65,54,255.951,48.3,255.951z M54.65,243.3
				c0.45-0.1,0.95,0.05,1.25,0.4c0.35,0.35,0.4,0.85,0.25,1.299L54.65,243.3z M60.2,246.25L60.2,246.25c-0.15,0.4-0.6,0.65-1,0.5
				c-0.4-0.149-0.65-0.6-0.5-1l0,0c0.4-1.299,0.15-2.75-0.8-3.85c-1-1.102-2.4-1.5-3.75-1.199c-0.45,0.1-0.85-0.201-0.95-0.602
				c-0.1-0.449,0.2-0.85,0.6-0.949l0,0c1.85-0.4,3.9,0.199,5.25,1.699C60.4,242.4,60.75,244.451,60.2,246.25z"/>
		</g>
		<g>
			<path fill="#eb6f25" d="M114.35,250.1c-0.199-0.101-0.449,0-0.6,0.2c-0.1,0.199-0.05,0.449,0.15,0.5c0.199,0.101,0.5,0,0.6-0.2
				C114.65,250.4,114.55,250.15,114.35,250.1z"/>
			<path fill="#eb6f25" d="M113.5,246.5c-3.45,0.351-6.1,2.451-5.85,4.75c0.25,2.25,3.199,3.851,6.648,3.5
				c3.45-0.35,6.102-2.449,5.852-4.75C119.95,247.701,117,246.15,113.5,246.5z M116.55,251.85c-0.7,1.601-2.75,2.45-4.45,1.899
				c-1.648-0.549-2.35-2.199-1.648-3.649c0.699-1.449,2.6-2.25,4.199-1.851C116.4,248.701,117.25,250.3,116.55,251.85z"/>
			<path fill="#eb6f25" d="M113.05,250.65c-0.55-0.199-1.25,0-1.55,0.5c-0.35,0.5-0.2,1.148,0.35,1.398c0.551,0.25,1.25,0,1.602-0.5
				C113.75,251.5,113.55,250.85,113.05,250.65z"/>
			<path fill="#eb6f25" d="M115.5,231.5c-8.85,0-16,7.15-16,16c0,8.851,7.15,16,16,16s16-7.149,16-16
				C131.5,238.65,124.35,231.5,115.5,231.5z M114.3,255.951c-4.35,0-8.75-2.102-8.75-5.551c0-1.801,1.15-3.9,3.101-5.852
				c2.649-2.648,5.699-3.85,6.851-2.699c0.5,0.5,0.55,1.4,0.25,2.449c-0.149,0.551,0.5,0.25,0.5,0.25
				c2.149-0.898,4-0.949,4.649,0.051c0.351,0.5,0.351,1.25,0,2.102c-0.149,0.398,0.051,0.449,0.351,0.549
				c1.2,0.351,2.55,1.25,2.55,2.851C123.8,252.65,120,255.951,114.3,255.951z M120.65,243.3c0.449-0.1,0.949,0.05,1.25,0.4
				c0.35,0.35,0.398,0.85,0.25,1.299L120.65,243.3z M126.2,246.25L126.2,246.25c-0.15,0.4-0.601,0.65-1,0.5
				c-0.4-0.149-0.65-0.6-0.5-1l0,0c0.399-1.299,0.149-2.75-0.8-3.85c-1-1.102-2.4-1.5-3.75-1.199c-0.45,0.1-0.852-0.201-0.95-0.602
				c-0.101-0.449,0.2-0.85,0.6-0.949l0,0c1.851-0.4,3.9,0.199,5.25,1.699C126.4,242.4,126.75,244.451,126.2,246.25z"/>
		</g>
		<g>
			<path fill="#FFFFFF" d="M14.05,246.5c-3.45,0.351-6.1,2.451-5.85,4.75c0.25,2.25,3.2,3.851,6.65,3.5
				c3.45-0.35,6.1-2.449,5.85-4.75C20.5,247.701,17.5,246.15,14.05,246.5z M17.05,251.85c-0.7,1.601-2.75,2.45-4.45,1.899
				c-1.65-0.549-2.35-2.199-1.65-3.649c0.7-1.449,2.6-2.25,4.2-1.851C16.9,248.701,17.75,250.3,17.05,251.85z"/>
			<path fill="#FFFFFF" d="M14.85,250.1c-0.2-0.101-0.45,0-0.6,0.2c-0.1,0.199-0.05,0.449,0.15,0.5c0.2,0.101,0.5,0,0.6-0.2
				C15.15,250.4,15.1,250.15,14.85,250.1z"/>
			<path fill="#FFFFFF" d="M13.55,250.65c-0.55-0.199-1.25,0-1.55,0.5c-0.35,0.5-0.2,1.148,0.35,1.398c0.55,0.25,1.25,0,1.6-0.5
				C14.25,251.5,14.1,250.85,13.55,250.65z"/>
			<path fill="#FFFFFF" d="M16.5,231.5c-8.85,0-16,7.15-16,16c0,8.851,7.15,16,16,16s16-7.149,16-16
				C32.5,238.65,25.35,231.5,16.5,231.5z M14.85,255.951c-4.35,0-8.75-2.102-8.75-5.551c0-1.801,1.15-3.9,3.1-5.852
				c2.65-2.648,5.7-3.85,6.85-2.699c0.5,0.5,0.55,1.4,0.25,2.449c-0.15,0.551,0.5,0.25,0.5,0.25c2.15-0.898,4-0.949,4.65,0.051
				c0.35,0.5,0.35,1.25,0,2.102c-0.15,0.398,0.05,0.449,0.35,0.549c1.2,0.351,2.55,1.25,2.55,2.851
				C24.3,252.65,20.5,255.951,14.85,255.951z M21.15,243.3c0.45-0.1,0.95,0.05,1.25,0.4c0.35,0.35,0.4,0.85,0.25,1.299L21.15,243.3z
				 M26.7,246.25L26.7,246.25c-0.15,0.4-0.6,0.65-1,0.5c-0.4-0.149-0.65-0.6-0.5-1l0,0c0.4-1.299,0.15-2.75-0.8-3.85
				c-1-1.102-2.4-1.5-3.75-1.199c-0.45,0.1-0.85-0.201-0.95-0.602c-0.1-0.449,0.2-0.85,0.6-0.949l0,0c1.85-0.4,3.9,0.199,5.25,1.699
				C26.9,242.4,27.3,244.451,26.7,246.25z"/>
		</g>
		<g>
			<path fill="#FFFFFF" d="M80.85,254.75c-3.449,0.351-6.449-1.199-6.648-3.5c-0.2-2.25,2.398-4.399,5.85-4.75
				c3.451-0.35,6.45,1.201,6.65,3.5C86.9,252.25,84.3,254.4,80.85,254.75 M87.75,247.201c-0.3-0.102-0.5-0.15-0.35-0.551
				c0.35-0.852,0.35-1.551,0-2.102c-0.7-0.949-2.551-0.898-4.65-0.049c0,0-0.65,0.299-0.5-0.25c0.35-1.051,0.3-1.951-0.25-2.451
				c-1.15-1.148-4.2,0.051-6.85,2.701c-1.95,1.949-3.102,4.049-3.102,5.85c0,3.449,4.45,5.551,8.75,5.551c5.7,0,9.45-3.301,9.45-5.9
				C90.3,248.451,88.95,247.55,87.75,247.201"/>
			<path fill="#FFFFFF" d="M91.55,240.85c-1.35-1.5-3.399-2.101-5.25-1.699l0,0c-0.45,0.101-0.7,0.5-0.6,0.949
				c0.1,0.45,0.5,0.7,0.95,0.601c1.35-0.3,2.75,0.149,3.75,1.2c0.949,1.101,1.25,2.55,0.8,3.851l0,0c-0.15,0.399,0.1,0.85,0.5,1
				c0.399,0.149,0.85-0.101,1-0.5l0,0C93.25,244.451,92.9,242.4,91.55,240.85"/>
			<path fill="#FFFFFF" d="M87.15,243.3c0.449-0.1,0.949,0.05,1.25,0.4c0.35,0.35,0.398,0.85,0.25,1.299"/>
			<path fill="#FFFFFF" d="M81,250.6c-0.1,0.2-0.4,0.301-0.6,0.2c-0.2-0.1-0.25-0.301-0.15-0.5c0.1-0.2,0.4-0.301,0.6-0.2
				C81.05,250.15,81.15,250.4,81,250.6 M79.9,252.05c-0.352,0.55-1.051,0.75-1.602,0.5c-0.55-0.25-0.699-0.85-0.35-1.399
				c0.35-0.5,1-0.75,1.55-0.5C80.05,250.85,80.25,251.5,79.9,252.05 M81.2,248.25c-1.65-0.449-3.5,0.4-4.2,1.851
				c-0.75,1.5,0,3.101,1.65,3.649c1.699,0.551,3.75-0.299,4.449-1.899C83.75,250.3,82.9,248.701,81.2,248.25"/>
		</g>
	</g>
	<g id="Youku">
		<path d="M82.5,198.5c-8.85,0-16,7.15-16,16c0,8.851,7.15,16,16,16s16-7.149,16-16C98.5,205.65,91.35,198.5,82.5,198.5z"/>
		<path d="M49.5,198.5c-8.85,0-16,7.15-16,16c0,8.851,7.15,16,16,16s16-7.149,16-16C65.5,205.65,58.35,198.5,49.5,198.5z
			 M49.3,212.6c-1,2.25-1.85,4.2-2.85,6.399c-0.5,1.101-0.85,2.25-1.75,2.851c-3.65,0.25-0.95-3.8-0.4-5.199
			c-0.85-1.551-1.9-3.399-2.9-5.101c-0.45-0.801-1.55-2.25-0.45-3.1c0.4-0.301,1.3-0.301,1.75,0c1.3,1,2,3.699,3.1,4.898
			c0.4-0.648,0.75-1.6,1.15-2.5c0.35-0.85,0.65-2,1.2-2.398c0.85-0.602,2.15-0.102,2.3,0.75C50.75,210.25,49.75,211.65,49.3,212.6z
			 M57.8,218.15c-0.7-0.15-1.3-1.102-1.95-1.65c-0.65-0.6-1.4-1.149-1.95-1.649c-0.35-0.55-0.25,0.351-0.25,0.899
			c0,0.601,0,1.301,0,1.551c-0.05,0.55-0.35,0.851-0.9,0.949c-0.25,0-0.5,0-0.75,0c-0.55-0.049-0.8-0.449-0.9-0.949
			c0-2.399,0-4.75,0-7.149c0-1.351,2.55-1.351,2.6,0c0,0.851,0,1.649,0,2.5c0.4-0.2,0.65-0.601,0.95-0.899
			c0.25-0.201,0.5-0.451,0.7-0.701c0.45-0.398,0.85-0.799,1.2-1.199c0.5-1.051,2.5-1,2.65,0.301c0.2,1.801-2.25,2.449-2.7,3.5
			c0.65,0.898,2.25,1.551,2.75,2.6C59.8,217.1,59.2,218.451,57.8,218.15z"/>
		<g>
			<path fill="#FFFFFF" d="M91.8,216.15c0.5,0.949-0.1,2.301-1.5,2c-0.7-0.15-1.3-1.102-1.95-1.65
				c-0.648-0.6-1.398-1.149-1.949-1.649c-0.351-0.55-0.25,0.351-0.25,0.899c0,0.601,0,1.301,0,1.551
				c-0.051,0.55-0.351,0.851-0.899,0.949c-0.25,0-0.5,0-0.75,0c-0.55-0.049-0.8-0.449-0.899-0.949c0-2.399,0-4.75,0-7.149
				c0-1.351,2.551-1.351,2.601,0c0,0.851,0,1.649,0,2.5c0.399-0.2,0.649-0.601,0.95-0.899c0.25-0.201,0.5-0.451,0.699-0.701
				c0.449-0.398,0.851-0.799,1.199-1.199c0.5-1.051,2.5-1,2.65,0.301c0.199,1.801-2.25,2.449-2.7,3.5
				C89.7,214.5,91.25,215.15,91.8,216.15z"/>
			<path fill="#FFFFFF" d="M83.05,209.201c0.2,1.049-0.8,2.449-1.2,3.398c-1,2.25-1.85,4.199-2.85,6.4c-0.5,1.1-0.85,2.25-1.75,2.85
				c-3.65,0.25-0.95-3.801-0.4-5.199c-0.85-1.551-1.898-3.4-2.898-5.102c-0.45-0.799-1.551-2.25-0.45-3.1c0.399-0.3,1.3-0.3,1.75,0
				c1.3,1,2,3.7,3.101,4.899c0.399-0.649,0.75-1.601,1.149-2.5c0.351-0.851,0.649-2,1.2-2.399
				C81.55,207.85,82.85,208.35,83.05,209.201z"/>
		</g>
		<path fill="#eb6f25" d="M115.5,198.5c-8.85,0-16,7.15-16,16c0,8.851,7.15,16,16,16s16-7.149,16-16
			C131.5,205.65,124.35,198.5,115.5,198.5z M115.3,212.6c-1,2.25-1.85,4.2-2.85,6.399c-0.5,1.101-0.851,2.25-1.75,2.851
			c-3.65,0.25-0.95-3.8-0.4-5.199c-0.85-1.551-1.899-3.399-2.899-5.101c-0.449-0.801-1.551-2.25-0.449-3.1
			c0.398-0.301,1.3-0.301,1.75,0c1.3,1,2,3.699,3.1,4.898c0.4-0.648,0.75-1.6,1.15-2.5c0.35-0.85,0.648-2,1.199-2.398
			c0.851-0.602,2.149-0.102,2.301,0.75C116.75,210.25,115.75,211.65,115.3,212.6z M123.8,218.15c-0.7-0.15-1.3-1.102-1.95-1.65
			c-0.648-0.6-1.398-1.149-1.949-1.649c-0.351-0.55-0.25,0.351-0.25,0.899c0,0.601,0,1.301,0,1.551
			c-0.051,0.55-0.351,0.851-0.899,0.949c-0.25,0-0.5,0-0.75,0c-0.55-0.049-0.8-0.449-0.899-0.949c0-2.399,0-4.75,0-7.149
			c0-1.351,2.551-1.351,2.601,0c0,0.851,0,1.649,0,2.5c0.399-0.2,0.649-0.601,0.95-0.899c0.25-0.201,0.5-0.451,0.699-0.701
			c0.449-0.398,0.851-0.799,1.199-1.199c0.5-1.051,2.5-1,2.65,0.301c0.199,1.801-2.25,2.449-2.7,3.5
			c0.649,0.898,2.25,1.551,2.75,2.6C125.8,217.1,125.2,218.451,123.8,218.15z"/>
		<path fill="#FFFFFF" d="M16.5,198.5c-8.85,0-16,7.15-16,16c0,8.851,7.15,16,16,16s16-7.149,16-16
			C32.5,205.65,25.35,198.5,16.5,198.5z M15.75,212.6c-1,2.25-1.85,4.2-2.85,6.399c-0.5,1.101-0.85,2.25-1.75,2.851
			c-3.65,0.25-0.95-3.8-0.4-5.199c-0.85-1.551-1.9-3.399-2.9-5.101c-0.45-0.801-1.55-2.25-0.45-3.1c0.4-0.301,1.3-0.301,1.75,0
			c1.3,1,2,3.699,3.1,4.898c0.4-0.648,0.75-1.6,1.15-2.5c0.35-0.85,0.65-2,1.2-2.398c0.85-0.602,2.15-0.102,2.3,0.75
			C17.2,210.25,16.2,211.65,15.75,212.6z M24.25,218.15c-0.7-0.15-1.3-1.102-1.95-1.65c-0.65-0.6-1.4-1.149-1.95-1.649
			c-0.35-0.55-0.25,0.351-0.25,0.899c0,0.601,0,1.301,0,1.551c-0.05,0.55-0.35,0.851-0.9,0.949c-0.25,0-0.5,0-0.75,0
			c-0.55-0.049-0.8-0.449-0.9-0.949c0-2.399,0-4.75,0-7.149c0-1.351,2.55-1.351,2.6,0c0,0.851,0,1.649,0,2.5
			c0.4-0.2,0.65-0.601,0.95-0.899c0.25-0.201,0.5-0.451,0.7-0.701c0.45-0.398,0.85-0.799,1.2-1.199c0.5-1.051,2.5-1,2.65,0.301
			c0.2,1.801-2.25,2.449-2.7,3.5c0.65,0.898,2.25,1.551,2.75,2.6C26.25,217.1,25.65,218.451,24.25,218.15z"/>
	</g>
	<g id="Instagram">
		<path d="M82.5,165.5c-8.85,0-16,7.15-16,16c0,8.851,7.15,16,16,16s16-7.149,16-16C98.5,172.65,91.35,165.5,82.5,165.5z"/>
		<g>
			<path d="M53.5,178.1h2.7c0.35,0,0.65-0.3,0.65-0.649v-2.699c0-0.351-0.3-0.65-0.65-0.65h-2.7c-0.35,0-0.65,0.301-0.65,0.65v2.699
				C52.85,177.8,53.15,178.1,53.5,178.1z"/>
			<path d="M49.5,165.5c-8.85,0-16,7.15-16,16c0,8.851,7.15,16,16,16s16-7.149,16-16C65.5,172.65,58.35,165.5,49.5,165.5z
				 M58.8,186.9c0,1.551-1.25,2.85-2.85,2.85h-11.9c-1.55,0-2.85-1.25-2.85-2.85V175c0-1.549,1.25-2.85,2.85-2.85h11.9
				c1.55,0,2.85,1.25,2.85,2.85V186.9z"/>
			<path d="M50,184.701c2,0,3.55-1.602,3.55-3.551c0-2-1.6-3.551-3.55-3.551c-2,0-3.6,1.602-3.6,3.551
				C46.4,183.15,48,184.701,50,184.701z"/>
			<path d="M55.1,181.15c0,2.801-2.3,5.1-5.1,5.1s-5.1-2.299-5.1-5.1c0-0.5,0.05-0.949,0.2-1.4h-2.45v6.9
				c0,1.051,0.85,1.898,1.9,1.898H55.4c1.05,0,1.9-0.85,1.9-1.898v-6.9h-2.45C55,180.201,55.1,180.701,55.1,181.15z"/>
		</g>
		<path id="rect4122_1_" fill="#FFFFFF" d="M76.55,172.15c-1.55,0-2.85,1.25-2.85,2.85v11.9c0,1.551,1.25,2.85,2.85,2.85H88.5
			c1.55,0,2.85-1.25,2.85-2.85V175c0-1.549-1.25-2.85-2.85-2.85H76.55z M86,174.1h2.7c0.35,0,0.649,0.301,0.649,0.649v2.701
			c0,0.35-0.301,0.648-0.649,0.648H86c-0.35,0-0.65-0.301-0.65-0.648v-2.701C85.4,174.4,85.65,174.1,86,174.1z M82.55,177.6
			c2,0,3.55,1.601,3.55,3.551c0,2-1.6,3.55-3.55,3.55s-3.6-1.601-3.6-3.55C78.95,179.201,80.55,177.6,82.55,177.6z M75.2,179.75
			h2.45c-0.15,0.451-0.2,0.9-0.2,1.4c0,2.801,2.3,5.1,5.1,5.1s5.101-2.299,5.101-5.1c0-0.5-0.101-0.949-0.199-1.4H89.9v6.9
			c0,1.051-0.851,1.898-1.899,1.898H77.15c-1.051,0-1.9-0.85-1.9-1.898v-6.9H75.2z"/>
		<g>
			<path fill="#FFFFFF" d="M21.55,181.15c0,2.801-2.3,5.1-5.1,5.1c-2.8,0-5.1-2.299-5.1-5.1c0-0.5,0.05-0.949,0.2-1.4H9.1v6.9
				c0,1.051,0.85,1.898,1.9,1.898h10.85c1.05,0,1.9-0.85,1.9-1.898v-6.9H21.3C21.45,180.201,21.55,180.701,21.55,181.15z"/>
			<path fill="#FFFFFF" d="M19.95,178.1h2.7c0.35,0,0.65-0.3,0.65-0.649v-2.699c0-0.351-0.3-0.65-0.65-0.65h-2.7
				c-0.35,0-0.65,0.301-0.65,0.65v2.699C19.3,177.8,19.6,178.1,19.95,178.1z"/>
			<path fill="#FFFFFF" d="M16.45,184.701c2,0,3.55-1.602,3.55-3.551c0-2-1.6-3.551-3.55-3.551c-2,0-3.6,1.602-3.6,3.551
				C12.9,183.15,14.5,184.701,16.45,184.701z"/>
			<path fill="#FFFFFF" d="M16.5,165.5c-8.85,0-16,7.15-16,16c0,8.851,7.15,16,16,16s16-7.149,16-16
				C32.5,172.65,25.35,165.5,16.5,165.5z M25.25,186.9c0,1.551-1.25,2.85-2.85,2.85H10.5c-1.55,0-2.85-1.25-2.85-2.85V175
				c0-1.549,1.25-2.85,2.85-2.85h11.9c1.55,0,2.85,1.25,2.85,2.85V186.9z"/>
		</g>
		<g>
			<path fill="#eb6f25" d="M115.5,184.701c2,0,3.55-1.602,3.55-3.551c0-2-1.6-3.551-3.55-3.551s-3.6,1.602-3.6,3.551
				C111.9,183.15,113.5,184.701,115.5,184.701z"/>
			<path fill="#eb6f25" d="M120.6,181.15c0,2.801-2.3,5.1-5.1,5.1s-5.1-2.299-5.1-5.1c0-0.5,0.05-0.949,0.199-1.4h-2.449v6.9
				c0,1.051,0.85,1.898,1.898,1.898H120.9c1.05,0,1.898-0.85,1.898-1.898v-6.9h-2.449C120.5,180.201,120.6,180.701,120.6,181.15z"/>
			<path fill="#eb6f25" d="M115.5,165.5c-8.85,0-16,7.15-16,16c0,8.851,7.15,16,16,16s16-7.149,16-16
				C131.5,172.65,124.35,165.5,115.5,165.5z M124.3,186.9c0,1.551-1.25,2.85-2.85,2.85h-11.9c-1.55,0-2.85-1.25-2.85-2.85V175
				c0-1.549,1.25-2.85,2.85-2.85h11.9c1.55,0,2.85,1.25,2.85,2.85V186.9z"/>
			<path fill="#eb6f25" d="M119,178.1h2.7c0.35,0,0.649-0.3,0.649-0.649v-2.699c0-0.351-0.301-0.65-0.649-0.65H119
				c-0.35,0-0.65,0.301-0.65,0.65v2.699C118.35,177.8,118.65,178.1,119,178.1z"/>
		</g>
	</g>
	<g id="Vimeo">
		<path fill="#FFFFFF" d="M16.55,99.5c-8.85,0-16,7.15-16,16s7.15,16,16,16c8.85,0,16-7.15,16-16S25.4,99.5,16.55,99.5z
			 M25.9,112.05c-0.1,1.85-1.4,4.4-3.9,7.65c-2.6,3.4-4.8,5.1-6.6,5.1c-1.1,0-2.05-1.05-2.85-3.1c-0.5-1.9-1.05-3.8-1.55-5.65
			c-0.55-2.05-1.2-3.1-1.85-3.1c-0.15,0-0.65,0.3-1.5,0.9l-0.9-1.15c0.95-0.85,1.9-1.65,2.8-2.5c1.25-1.1,2.2-1.65,2.85-1.7
			c1.5-0.15,2.4,0.9,2.75,3.05c0.35,2.35,0.65,3.8,0.75,4.4c0.45,1.95,0.9,2.95,1.4,2.95c0.4,0,1-0.65,1.8-1.9
			c0.8-1.25,1.25-2.25,1.3-2.9c0.1-1.1-0.3-1.65-1.3-1.65c-0.45,0-0.95,0.1-1.4,0.3c0.95-3.1,2.75-4.6,5.4-4.5
			C25.05,108.3,26,109.55,25.9,112.05z"/>
		<g id="Layer_6">
			<rect x="71.25" y="106.65" fill="#FFFFFF" width="22.5" height="18.75"/>
		</g>
		<path fill="#010101" d="M49.5,99.5c-8.85,0-16,7.15-16,16s7.15,16,16,16s16-7.15,16-16S58.35,99.5,49.5,99.5z M58.85,112.05
			c-0.1,1.85-1.4,4.4-3.9,7.65c-2.6,3.4-4.8,5.1-6.6,5.1c-1.1,0-2.05-1.05-2.85-3.1c-0.5-1.9-1.05-3.8-1.55-5.65
			c-0.55-2.05-1.2-3.1-1.85-3.1c-0.15,0-0.65,0.3-1.5,0.9l-0.9-1.15c0.95-0.85,1.9-1.65,2.8-2.5c1.25-1.1,2.2-1.65,2.85-1.7
			c1.5-0.15,2.4,0.9,2.75,3.05c0.35,2.35,0.65,3.8,0.75,4.4c0.45,1.95,0.9,2.95,1.4,2.95c0.4,0,1-0.65,1.8-1.9
			c0.8-1.25,1.25-2.25,1.3-2.9c0.1-1.1-0.3-1.65-1.3-1.65c-0.45,0-0.95,0.1-1.4,0.3c0.95-3.1,2.75-4.6,5.4-4.5
			C58,108.3,58.95,109.55,58.85,112.05z"/>
		<path fill="#eb6f25" d="M115.5,99.5c-8.85,0-16,7.15-16,16s7.15,16,16,16s16-7.15,16-16S124.35,99.5,115.5,99.5z M124.85,112.05
			c-0.1,1.85-1.398,4.4-3.898,7.65c-2.602,3.4-4.801,5.1-6.602,5.1c-1.1,0-2.05-1.05-2.85-3.1c-0.5-1.9-1.05-3.8-1.55-5.65
			c-0.55-2.05-1.2-3.1-1.851-3.1c-0.149,0-0.649,0.3-1.5,0.9l-0.899-1.15c0.95-0.85,1.899-1.65,2.8-2.5c1.25-1.1,2.2-1.65,2.85-1.7
			c1.5-0.15,2.4,0.9,2.75,3.05c0.352,2.35,0.65,3.8,0.75,4.4c0.45,1.95,0.9,2.95,1.4,2.95c0.4,0,1-0.65,1.8-1.9s1.25-2.25,1.3-2.9
			c0.102-1.1-0.3-1.65-1.3-1.65c-0.45,0-0.95,0.1-1.399,0.3c0.949-3.1,2.75-4.6,5.399-4.5C124,108.3,124.95,109.55,124.85,112.05z"
			/>
		<g>
			<path fill="#010101" d="M82.5,99.5c-8.85,0-16,7.15-16,16s7.15,16,16,16s16-7.15,16-16S91.35,99.5,82.5,99.5z M91.85,112.05
				c-0.1,1.85-1.398,4.4-3.898,7.65c-2.602,3.4-4.801,5.1-6.602,5.1c-1.1,0-2.05-1.05-2.85-3.1c-0.5-1.9-1.05-3.8-1.55-5.65
				c-0.55-2.05-1.2-3.1-1.851-3.1c-0.149,0-0.649,0.3-1.5,0.9L72.7,112.7c0.95-0.85,1.899-1.65,2.8-2.5c1.25-1.1,2.2-1.65,2.85-1.7
				c1.5-0.15,2.4,0.9,2.75,3.05c0.352,2.35,0.65,3.8,0.75,4.4c0.45,1.95,0.9,2.95,1.4,2.95c0.4,0,1-0.65,1.8-1.9s1.25-2.25,1.3-2.9
				c0.102-1.1-0.3-1.65-1.3-1.65c-0.45,0-0.95,0.1-1.399,0.3c0.949-3.1,2.75-4.6,5.399-4.5C91.05,108.3,91.95,109.55,91.85,112.05z"
				/>
		</g>
	</g>
	<g id="Pinterest">
		<path fill="#010101" d="M82.5,132.5c-8.85,0-16,7.15-16,16s7.15,16,16,16s16-7.15,16-16S91.35,132.5,82.5,132.5z"/>
		<g id="Layer_9">
			<g>
				<path fill="#FFFFFF" d="M77.5,158.1c-0.05-0.899,0-1.95,0.2-2.899c0.25-1,1.6-6.85,1.6-6.85s-0.399-0.8-0.399-2
					c0-1.85,1.101-3.25,2.449-3.25c1.15,0,1.7,0.85,1.7,1.9c0,1.15-0.75,2.85-1.1,4.45c-0.3,1.35,0.649,2.4,2,2.4
					c2.399,0,4-3.05,4-6.7c0-2.75-1.851-4.8-5.25-4.8c-3.8,0-6.2,2.85-6.2,6.05c0,1.1,0.3,1.85,0.85,2.45
					c0.25,0.25,0.25,0.4,0.2,0.7c-0.05,0.25-0.2,0.8-0.25,1c-0.1,0.3-0.35,0.45-0.649,0.3c-1.75-0.7-2.601-2.65-2.601-4.8
					c0-3.6,3-7.85,9-7.85c4.8,0,7.95,3.5,7.95,7.2c0,4.95-2.75,8.65-6.8,8.65c-1.351,0-2.65-0.75-3.101-1.55
					c0,0-0.75,2.9-0.899,3.45c-0.25,0.95-0.8,1.95-1.25,2.7C78.6,158.85,77.85,158.7,77.5,158.1z"/>
			</g>
			<path fill="#eb6f25" d="M115.5,132.5c-8.85,0-16,7.15-16,16s7.15,16,16,16s16-7.15,16-16S124.35,132.5,115.5,132.5z M117.7,154.1
				c-1.351,0-2.65-0.75-3.101-1.55c0,0-0.75,2.9-0.899,3.45c-0.25,0.95-0.8,1.95-1.25,2.7c-0.351,0.2-1.101,0.05-1.5-0.55
				c-0.05-0.9,0-1.95,0.2-2.9c0.25-1,1.6-6.85,1.6-6.85s-0.4-0.8-0.4-2c0-1.85,1.102-3.25,2.45-3.25c1.15,0,1.7,0.85,1.7,1.9
				c0,1.15-0.75,2.85-1.1,4.45c-0.301,1.35,0.648,2.4,2,2.4c2.398,0,4-3.05,4-6.7c0-2.75-1.852-4.8-5.25-4.8
				c-3.801,0-6.2,2.85-6.2,6.05c0,1.1,0.3,1.85,0.85,2.45c0.25,0.25,0.25,0.4,0.2,0.7c-0.05,0.25-0.2,0.8-0.25,1
				c-0.1,0.3-0.35,0.45-0.65,0.3c-1.75-0.7-2.6-2.65-2.6-4.8c0-3.6,3-7.85,9-7.85c4.8,0,7.95,3.5,7.95,7.2
				C124.5,150.4,121.75,154.1,117.7,154.1z"/>
			<path fill="#FFFFFF" d="M16.5,132.5c-8.85,0-16,7.15-16,16s7.15,16,16,16s16-7.15,16-16S25.35,132.5,16.5,132.5z M18.15,154.1
				c-1.35,0-2.65-0.75-3.1-1.55c0,0-0.75,2.9-0.9,3.45c-0.25,0.95-0.8,1.95-1.25,2.7c-0.35,0.2-1.1,0.05-1.5-0.55
				c-0.05-0.9,0-1.95,0.2-2.9c0.25-1,1.6-6.85,1.6-6.85s-0.4-0.8-0.4-2c0-1.85,1.1-3.25,2.45-3.25c1.15,0,1.7,0.85,1.7,1.9
				c0,1.15-0.75,2.85-1.1,4.45c-0.3,1.35,0.65,2.4,2,2.4c2.4,0,4-3.05,4-6.7c0-2.75-1.85-4.8-5.25-4.8c-3.8,0-6.2,2.85-6.2,6.05
				c0,1.1,0.3,1.85,0.85,2.45c0.25,0.25,0.25,0.4,0.2,0.7c-0.05,0.25-0.2,0.8-0.25,1c-0.1,0.3-0.35,0.45-0.65,0.3
				c-1.75-0.7-2.6-2.65-2.6-4.8c0-3.6,3-7.85,9-7.85c4.8,0,7.95,3.5,7.95,7.2C24.95,150.4,22.2,154.1,18.15,154.1z"/>
			<path fill="#010101" d="M49.5,132.5c-8.85,0-16,7.15-16,16s7.15,16,16,16s16-7.15,16-16S58.35,132.5,49.5,132.5z M51.7,154.1
				c-1.35,0-2.65-0.75-3.1-1.55c0,0-0.75,2.9-0.9,3.45c-0.25,0.95-0.8,1.95-1.25,2.7c-0.35,0.2-1.1,0.05-1.5-0.55
				c-0.05-0.9,0-1.95,0.2-2.9c0.25-1,1.6-6.85,1.6-6.85s-0.4-0.8-0.4-2c0-1.85,1.1-3.25,2.45-3.25c1.15,0,1.7,0.85,1.7,1.9
				c0,1.15-0.75,2.85-1.1,4.45c-0.3,1.35,0.65,2.4,2,2.4c2.4,0,4-3.05,4-6.7c0-2.75-1.85-4.8-5.25-4.8c-3.8,0-6.2,2.85-6.2,6.05
				c0,1.1,0.3,1.85,0.85,2.45c0.25,0.25,0.25,0.4,0.2,0.7c-0.05,0.25-0.2,0.8-0.25,1c-0.1,0.3-0.35,0.45-0.65,0.3
				c-1.75-0.7-2.6-2.65-2.6-4.8c0-3.6,3-7.85,9-7.85c4.8,0,7.95,3.5,7.95,7.2C58.5,150.4,55.75,154.1,51.7,154.1z"/>
		</g>
	</g>
	<g id="LinkedIn">
		<path fill="#FFFFFF" d="M16.5,66.5c-8.85,0-16,7.15-16,16s7.15,16,16,16s16-7.15,16-16S25.35,66.5,16.5,66.5z M11.7,90.95H7.9
			v-11.4h3.8V90.95z M9.8,78L9.8,78c-1.3,0-2.1-0.9-2.1-1.95c0-1.1,0.85-1.95,2.15-1.95c1.3,0,2.1,0.85,2.1,1.95
			C11.95,77.1,11.1,78,9.8,78z M25.35,90.95h-3.8v-6.1c0-1.55-0.55-2.6-1.9-2.6c-1.05,0-1.65,0.7-1.95,1.4
			c-0.1,0.25-0.1,0.6-0.1,0.95v6.35h-3.8c0,0,0.05-10.35,0-11.4h3.8v1.6c0.5-0.8,1.4-1.9,3.4-1.9c2.5,0,4.35,1.65,4.35,5.15V90.95z"
			/>
		<path fill="#010101" d="M49.5,66.5c-8.85,0-16,7.15-16,16s7.15,16,16,16s16-7.15,16-16S58.35,66.5,49.5,66.5z M44.65,90.95h-3.8
			v-11.4h3.8V90.95z M42.75,78L42.75,78c-1.3,0-2.1-0.9-2.1-1.95c0-1.1,0.85-1.95,2.15-1.95c1.3,0,2.1,0.85,2.1,1.95
			C44.9,77.1,44.1,78,42.75,78z M58.35,90.95h-3.8v-6.1c0-1.55-0.55-2.6-1.9-2.6c-1.05,0-1.65,0.7-1.95,1.4
			c-0.1,0.25-0.1,0.6-0.1,0.95v6.35h-3.8c0,0,0.05-10.35,0-11.4h3.8v1.6c0.5-0.8,1.4-1.9,3.4-1.9c2.5,0,4.35,1.65,4.35,5.15V90.95z"
			/>
		<path fill="#010101" d="M82.5,66.65c-8.85,0-16,7.15-16,16s7.15,16,16,16s16-7.15,16-16C98.5,73.85,91.35,66.65,82.5,66.65z"/>
		<g>
			<path fill="#FFFFFF" d="M77.7,91.1V79.7h-3.8v11.4H77.7L77.7,91.1z M75.8,78.15c1.3,0,2.15-0.9,2.15-1.95
				c0-1.1-0.8-1.95-2.101-1.95S73.7,75.1,73.7,76.2C73.65,77.25,74.5,78.15,75.8,78.15L75.8,78.15L75.8,78.15z"/>
			<path fill="#FFFFFF" d="M79.8,91.1h3.8v-6.35c0-0.35,0-0.7,0.102-0.95c0.25-0.7,0.898-1.4,1.949-1.4
				c1.351,0,1.899,1.05,1.899,2.6v6.1h3.8v-6.55c0-3.5-1.85-5.15-4.35-5.15c-2.05,0-2.95,1.15-3.45,1.9h0.05v-1.65h-3.8
				C79.85,80.8,79.8,91.1,79.8,91.1L79.8,91.1z"/>
		</g>
		<path fill="#eb6f25" d="M115.5,66.5c-8.85,0-16,7.15-16,16s7.15,16,16,16s16-7.15,16-16S124.35,66.5,115.5,66.5z M110.65,90.95
			h-3.801v-11.4h3.801V90.95z M108.75,78L108.75,78c-1.3,0-2.1-0.9-2.1-1.95c0-1.1,0.85-1.95,2.148-1.95s2.102,0.85,2.102,1.95
			C110.9,77.1,110.1,78,108.75,78z M124.35,90.95h-3.8v-6.1c0-1.55-0.55-2.6-1.899-2.6c-1.051,0-1.649,0.7-1.949,1.4
			c-0.102,0.25-0.102,0.6-0.102,0.95v6.35h-3.8c0,0,0.05-10.35,0-11.4h3.8v1.6c0.5-0.8,1.4-1.9,3.4-1.9c2.5,0,4.35,1.65,4.35,5.15
			V90.95z"/>
	</g>
	<g id="Facebook">
		<path id="facebook-circle-icon" fill="#FFFFFF" d="M16.5,33.5c-8.8,0-16,7.15-16,16s7.15,16,16,16s16-7.15,16-16
			S25.35,33.5,16.5,33.5z M21.25,42.9c0,0-1.6,0-2.25,0c-0.8,0-0.95,0.3-0.95,1.15c0,0.7,0,1.95,0,1.95h3.2l-0.3,3.5h-2.9v10.35
			H13.9v-10.3h-2.15v-3.5h2.15c0,0,0-0.5,0-2.75c0-2.6,1.4-3.95,4.45-3.95c0.5,0,2.85,0,2.85,0v3.55H21.25L21.25,42.9z"/>
		<path id="facebook-circle-icon_1_" fill="#010101" d="M49.5,33.5c-8.85,0-16,7.15-16,16s7.15,16,16,16s16-7.15,16-16
			S58.35,33.5,49.5,33.5z M54.25,42.9c0,0-1.6,0-2.25,0c-0.8,0-0.95,0.3-0.95,1.15c0,0.7,0,1.95,0,1.95h3.2l-0.3,3.45h-2.9V59.8
			H46.9V49.55h-2.15v-3.5h2.15c0,0,0-0.5,0-2.75c0-2.6,1.4-3.95,4.45-3.95c0.5,0,2.85,0,2.85,0v3.55H54.25L54.25,42.9z"/>
		<g id="Layer_3">
			<rect x="76.05" y="38.15" fill="#FFFFFF" width="14.45" height="22.75"/>
		</g>
		<path id="facebook-circle-icon_2_" d="M82.5,33.5c-8.85,0-16,7.15-16,16s7.15,16,16,16s16-7.15,16-16S91.35,33.5,82.5,33.5z
			 M87.25,42.9c0,0-1.6,0-2.25,0c-0.8,0-0.95,0.3-0.95,1.15c0,0.7,0,1.95,0,1.95h3.2l-0.3,3.45h-2.9V59.8H79.9V49.55h-2.15v-3.5
			h2.15c0,0,0-0.5,0-2.75c0-2.6,1.398-3.95,4.449-3.95c0.5,0,2.851,0,2.851,0v3.55H87.25L87.25,42.9z"/>
		<path id="facebook-circle-icon_3_" fill="#eb6f25" d="M115.5,33.5c-8.85,0-16,7.15-16,16s7.15,16,16,16s16-7.15,16-16
			S124.35,33.5,115.5,33.5z M120.25,42.9c0,0-1.6,0-2.25,0c-0.8,0-0.95,0.3-0.95,1.15c0,0.7,0,1.95,0,1.95h3.2l-0.3,3.45h-2.9V59.8
			H112.9V49.55h-2.15v-3.5h2.15c0,0,0-0.5,0-2.75c0-2.6,1.398-3.95,4.449-3.95c0.5,0,2.851,0,2.851,0v3.55H120.25L120.25,42.9z"/>
	</g>
	<g id="Twitter">
		<path fill="#FFFFFF" d="M16.5,0.5c-8.8,0-16,7.15-16,16s7.15,16,16,16s16-7.15,16-16S25.35,0.5,16.5,0.5z M23.95,12.65
			c0,0.15,0,0.35,0,0.5c0,5.1-3.9,11-11,11c-2.2,0-4.2-0.65-5.9-1.75c0.3,0.05,0.6,0.05,0.9,0.05c1.8,0,3.45-0.6,4.8-1.65
			c-1.7-0.05-3.1-1.15-3.6-2.7c0.25,0.05,0.5,0.05,0.75,0.05c0.35,0,0.7-0.05,1-0.15c-1.75-0.35-3.1-1.9-3.1-3.8v-0.05
			c0.5,0.3,1.1,0.45,1.75,0.5c-1.05-0.65-1.7-1.8-1.7-3.15c0-0.7,0.2-1.35,0.5-1.95c1.9,2.35,4.75,3.85,7.95,4.05
			c-0.05-0.3-0.1-0.6-0.1-0.9c0-2.15,1.75-3.85,3.85-3.85c1.1,0,2.1,0.45,2.8,1.2c0.9-0.15,1.7-0.5,2.45-0.95
			c-0.3,0.9-0.9,1.65-1.7,2.15c0.8-0.1,1.55-0.3,2.2-0.6C25.35,11.45,24.7,12.1,23.95,12.65z"/>
		<rect x="72.4" y="6.4" fill="#FFFFFF" width="20" height="18.95"/>
		<path d="M49.5,0.5c-8.85,0-16,7.15-16,16s7.15,16,16,16s16-7.15,16-16S58.35,0.5,49.5,0.5z M57.5,12.65c0,0.15,0,0.35,0,0.5
			c0,5.1-3.9,11-11,11c-2.2,0-4.2-0.65-5.9-1.75c0.3,0.05,0.6,0.05,0.9,0.05c1.8,0,3.45-0.6,4.8-1.65c-1.7-0.05-3.1-1.15-3.6-2.7
			c0.25,0.05,0.5,0.05,0.75,0.05c0.35,0,0.7-0.05,1-0.15c-1.75-0.35-3.1-1.9-3.1-3.8v-0.05c0.5,0.3,1.1,0.45,1.75,0.5
			c-1.05-0.7-1.7-1.85-1.7-3.2c0-0.7,0.2-1.35,0.5-1.95c1.9,2.35,4.75,3.85,7.95,4.05c-0.05-0.3-0.1-0.6-0.1-0.9
			c0-2.15,1.75-3.85,3.85-3.85c1.1,0,2.1,0.45,2.8,1.2c0.9-0.15,1.7-0.5,2.45-0.95c-0.3,0.9-0.9,1.65-1.7,2.15
			c0.8-0.1,1.55-0.3,2.2-0.6C58.9,11.45,58.25,12.1,57.5,12.65z"/>
		<path d="M82.5,0.5c-8.85,0-16,7.15-16,16s7.15,16,16,16s16-7.15,16-16S91.35,0.5,82.5,0.5z M90,12.65c0,0.15,0,0.35,0,0.5
			c0,5.1-3.9,11-11,11c-2.2,0-4.2-0.65-5.9-1.75c0.301,0.05,0.602,0.05,0.9,0.05c1.8,0,3.45-0.6,4.8-1.65
			c-1.7-0.05-3.1-1.15-3.6-2.7c0.25,0.05,0.5,0.05,0.75,0.05c0.35,0,0.7-0.05,1-0.15c-1.75-0.35-3.101-1.9-3.101-3.8v-0.05
			c0.5,0.3,1.101,0.45,1.75,0.5c-1.051-0.7-1.699-1.85-1.699-3.2c0-0.7,0.199-1.35,0.5-1.95c1.898,2.35,4.75,3.85,7.949,4.05
			c-0.051-0.3-0.101-0.6-0.101-0.9c0-2.15,1.75-3.85,3.851-3.85C87.2,8.8,88.2,9.25,88.9,10C89.8,9.85,90.6,9.5,91.35,9.05
			c-0.3,0.9-0.898,1.65-1.699,2.15c0.801-0.1,1.551-0.3,2.199-0.6C91.4,11.45,90.75,12.1,90,12.65z"/>
		<path fill="#eb6f25" d="M115.5,0.5c-8.85,0-16,7.15-16,16s7.15,16,16,16s16-7.15,16-16S124.35,0.5,115.5,0.5z M123.5,12.65
			c0,0.15,0,0.35,0,0.5c0,5.1-3.9,11-11,11c-2.2,0-4.2-0.65-5.9-1.75c0.301,0.05,0.602,0.05,0.9,0.05c1.8,0,3.45-0.6,4.8-1.65
			c-1.7-0.05-3.1-1.15-3.6-2.7c0.25,0.05,0.5,0.05,0.75,0.05c0.35,0,0.7-0.05,1-0.15c-1.75-0.35-3.101-1.9-3.101-3.8v-0.05
			c0.5,0.3,1.101,0.45,1.75,0.5c-1.051-0.7-1.699-1.85-1.699-3.2c0-0.7,0.199-1.35,0.5-1.95c1.898,2.35,4.75,3.85,7.949,4.05
			c-0.051-0.3-0.101-0.6-0.101-0.9c0-2.15,1.75-3.85,3.851-3.85c1.101,0,2.101,0.45,2.801,1.2c0.898-0.15,1.699-0.5,2.449-0.95
			c-0.301,0.9-0.899,1.65-1.699,2.15c0.8-0.1,1.55-0.3,2.199-0.6C124.9,11.45,124.25,12.1,123.5,12.65z"/>
	</g>
</g>
<path fill="#eb6f25" d="M115.458,297.25c-8.851,0-16,7.149-16,16c0,8.85,7.149,16,16,16s16-7.15,16-16
	C131.458,304.399,124.309,297.25,115.458,297.25z M115.772,318.413c-0.623,0.718-1.305,1.395-2.024,2.015
	c-0.911,0.783-2.509,0.76-3.422-0.024c-0.63-0.54-1.236-1.119-1.786-1.741c-1.07-1.211-1.061-2.748,0.021-3.967
	c0.537-0.605,1.127-1.172,1.741-1.699c0.919-0.79,2.45-0.791,3.418-0.035c-0.448,0.447-0.876,0.88-1.314,1.303
	c-0.062,0.06-0.176,0.098-0.263,0.093c-0.315-0.02-0.582,0.078-0.803,0.295c-0.448,0.441-0.898,0.882-1.333,1.336
	c-0.416,0.434-0.414,0.981,0.002,1.414c0.437,0.453,0.882,0.898,1.335,1.335c0.434,0.417,0.979,0.421,1.414,0.004
	c0.455-0.435,0.895-0.885,1.337-1.334c0.216-0.22,0.319-0.486,0.293-0.801c-0.007-0.073,0.003-0.175,0.048-0.22
	c0.443-0.457,0.896-0.903,1.348-1.354C116.529,315.945,116.555,317.511,115.772,318.413z M118.617,309.503
	c0.202,0.203,0.422,0.422,0.624,0.624c-2.287,2.286-4.572,4.572-6.859,6.859c-0.202-0.203-0.421-0.422-0.623-0.625
	C114.045,314.076,116.33,311.791,118.617,309.503z M122.443,311.792c-0.529,0.6-1.112,1.158-1.716,1.682
	c-0.932,0.81-2.408,0.824-3.453,0.062c0.454-0.454,0.889-0.893,1.332-1.323c0.056-0.054,0.161-0.087,0.239-0.08
	c0.327,0.03,0.6-0.078,0.827-0.304c0.441-0.435,0.884-0.867,1.312-1.314c0.43-0.447,0.426-0.991-0.006-1.437
	c-0.432-0.444-0.868-0.883-1.314-1.312c-0.444-0.431-0.989-0.432-1.437-0.002c-0.438,0.423-0.863,0.858-1.293,1.29
	c-0.233,0.235-0.355,0.512-0.321,0.852c0.007,0.07-0.018,0.167-0.064,0.216c-0.382,0.394-0.771,0.779-1.16,1.166
	c-0.056,0.056-0.116,0.107-0.176,0.161c-0.629-0.713-0.742-2.044-0.25-2.956c0.11-0.204,0.232-0.41,0.392-0.576
	c0.539-0.564,1.062-1.151,1.654-1.657c1.215-1.039,2.724-1.019,3.923,0.036c0.54,0.475,1.052,0.988,1.525,1.529
	C123.524,309.042,123.524,310.569,122.443,311.792z"/>
<g id="YbKh5P.tif_1_">
	<g>
		<path fill-rule="evenodd" clip-rule="evenodd" fill="#FFFFFF" d="M84.274,313.539c0.454-0.454,0.889-0.893,1.332-1.323
			c0.056-0.054,0.161-0.087,0.239-0.08c0.327,0.03,0.6-0.078,0.827-0.304c0.441-0.435,0.884-0.867,1.312-1.314
			c0.43-0.447,0.426-0.991-0.006-1.437c-0.432-0.444-0.868-0.883-1.314-1.312c-0.444-0.431-0.989-0.432-1.437-0.002
			c-0.438,0.423-0.863,0.858-1.293,1.29c-0.233,0.235-0.355,0.512-0.321,0.852c0.007,0.07-0.018,0.167-0.064,0.216
			c-0.382,0.394-0.771,0.779-1.16,1.166c-0.056,0.056-0.116,0.107-0.176,0.161c-0.629-0.713-0.742-2.044-0.25-2.956
			c0.11-0.204,0.232-0.41,0.392-0.576c0.539-0.564,1.062-1.151,1.654-1.657c1.215-1.039,2.724-1.019,3.923,0.036
			c0.54,0.475,1.052,0.988,1.525,1.529c1.066,1.219,1.066,2.745-0.015,3.968c-0.529,0.6-1.112,1.158-1.716,1.682
			C86.796,314.286,85.319,314.3,84.274,313.539z"/>
		<path fill-rule="evenodd" clip-rule="evenodd" fill="#FFFFFF" d="M80.721,312.963c-0.448,0.447-0.876,0.88-1.314,1.303
			c-0.062,0.06-0.176,0.098-0.263,0.093c-0.315-0.02-0.582,0.078-0.803,0.295c-0.448,0.441-0.898,0.882-1.333,1.336
			c-0.416,0.434-0.414,0.981,0.002,1.414c0.437,0.453,0.882,0.898,1.335,1.335c0.434,0.417,0.979,0.421,1.414,0.004
			c0.455-0.435,0.895-0.885,1.337-1.334c0.216-0.22,0.319-0.486,0.293-0.801c-0.007-0.073,0.003-0.175,0.048-0.22
			c0.443-0.457,0.896-0.903,1.348-1.354c0.745,0.914,0.771,2.48-0.012,3.382c-0.623,0.718-1.305,1.395-2.024,2.015
			c-0.911,0.783-2.509,0.76-3.422-0.024c-0.63-0.54-1.236-1.119-1.786-1.741c-1.07-1.211-1.061-2.748,0.021-3.967
			c0.537-0.605,1.127-1.172,1.741-1.699C78.222,312.208,79.753,312.208,80.721,312.963z"/>
		<path fill-rule="evenodd" clip-rule="evenodd" fill="#FFFFFF" d="M85.617,309.506c0.202,0.203,0.422,0.422,0.624,0.624
			c-2.287,2.286-4.572,4.572-6.859,6.859c-0.202-0.203-0.421-0.422-0.623-0.625C81.045,314.079,83.33,311.793,85.617,309.506z"/>
	</g>
</g>
<path d="M49.458,297.25c-8.85,0-16,7.149-16,16c0,8.85,7.15,16,16,16s16-7.15,16-16C65.458,304.399,58.308,297.25,49.458,297.25z
	 M49.888,318.415c-0.623,0.718-1.305,1.395-2.024,2.015c-0.911,0.783-2.509,0.76-3.422-0.024c-0.63-0.54-1.236-1.119-1.786-1.741
	c-1.07-1.211-1.061-2.748,0.021-3.967c0.537-0.605,1.127-1.172,1.741-1.699c0.919-0.79,2.45-0.791,3.418-0.035
	c-0.448,0.447-0.876,0.88-1.314,1.303c-0.062,0.06-0.176,0.098-0.263,0.093c-0.315-0.02-0.582,0.078-0.803,0.295
	c-0.448,0.441-0.898,0.882-1.333,1.336c-0.416,0.434-0.414,0.981,0.002,1.414c0.437,0.453,0.882,0.898,1.335,1.335
	c0.434,0.417,0.979,0.421,1.414,0.004c0.455-0.435,0.895-0.885,1.337-1.334c0.216-0.22,0.319-0.486,0.293-0.801
	c-0.007-0.073,0.003-0.175,0.048-0.22c0.443-0.457,0.896-0.903,1.348-1.354C50.645,315.947,50.67,317.513,49.888,318.415z
	 M52.732,309.505c0.202,0.203,0.422,0.422,0.624,0.624c-2.287,2.286-4.572,4.572-6.859,6.859c-0.202-0.203-0.421-0.422-0.623-0.625
	C48.16,314.078,50.445,311.792,52.732,309.505z M56.559,311.793c-0.529,0.6-1.112,1.158-1.716,1.682
	c-0.932,0.81-2.408,0.824-3.453,0.062c0.454-0.454,0.889-0.893,1.332-1.323c0.056-0.054,0.161-0.087,0.239-0.08
	c0.327,0.03,0.6-0.078,0.827-0.304c0.441-0.435,0.884-0.867,1.312-1.314c0.43-0.447,0.426-0.991-0.006-1.437
	c-0.432-0.444-0.868-0.883-1.314-1.312c-0.444-0.431-0.989-0.432-1.437-0.002c-0.438,0.423-0.863,0.858-1.293,1.29
	c-0.233,0.235-0.355,0.512-0.321,0.852c0.007,0.07-0.018,0.167-0.064,0.216c-0.382,0.394-0.771,0.779-1.16,1.166
	c-0.056,0.056-0.116,0.107-0.176,0.161c-0.629-0.713-0.742-2.044-0.25-2.956c0.11-0.204,0.232-0.41,0.392-0.576
	c0.539-0.564,1.062-1.151,1.654-1.657c1.215-1.039,2.724-1.019,3.923,0.036c0.54,0.475,1.052,0.988,1.525,1.529
	C57.64,309.044,57.64,310.571,56.559,311.793z"/>
<path fill="#FFFFFF" d="M16.458,297.25c-8.85,0-16,7.149-16,16c0,8.85,7.15,16,16,16s16-7.15,16-16
	C32.458,304.399,25.308,297.25,16.458,297.25z M16.73,318.411c-0.623,0.718-1.305,1.395-2.024,2.015
	c-0.911,0.783-2.509,0.76-3.422-0.024c-0.63-0.54-1.236-1.119-1.786-1.741c-1.07-1.211-1.061-2.748,0.021-3.967
	c0.537-0.605,1.127-1.172,1.741-1.699c0.919-0.79,2.45-0.791,3.418-0.035c-0.448,0.447-0.876,0.88-1.314,1.303
	c-0.062,0.06-0.176,0.098-0.263,0.093c-0.315-0.02-0.582,0.078-0.803,0.295c-0.448,0.441-0.898,0.882-1.333,1.336
	c-0.416,0.434-0.414,0.981,0.002,1.414c0.437,0.453,0.882,0.898,1.335,1.335c0.434,0.417,0.979,0.421,1.414,0.004
	c0.455-0.435,0.895-0.885,1.337-1.334c0.216-0.22,0.319-0.486,0.293-0.801c-0.007-0.073,0.003-0.175,0.048-0.22
	c0.443-0.457,0.896-0.903,1.348-1.354C17.487,315.943,17.513,317.509,16.73,318.411z M19.575,309.501
	c0.202,0.203,0.422,0.422,0.624,0.624c-2.287,2.286-4.572,4.572-6.859,6.859c-0.202-0.203-0.421-0.422-0.623-0.625
	C15.003,314.074,17.288,311.789,19.575,309.501z M23.401,311.79c-0.529,0.6-1.112,1.158-1.716,1.682
	c-0.932,0.81-2.408,0.824-3.453,0.062c0.454-0.454,0.889-0.893,1.332-1.323c0.056-0.054,0.161-0.087,0.239-0.08
	c0.327,0.03,0.6-0.078,0.827-0.304c0.441-0.435,0.884-0.867,1.312-1.314c0.43-0.447,0.426-0.991-0.006-1.437
	c-0.432-0.444-0.868-0.883-1.314-1.312c-0.444-0.431-0.989-0.432-1.437-0.002c-0.438,0.423-0.863,0.858-1.293,1.29
	c-0.233,0.235-0.355,0.512-0.321,0.852c0.007,0.07-0.018,0.167-0.064,0.216c-0.382,0.394-0.771,0.779-1.16,1.166
	c-0.056,0.056-0.116,0.107-0.176,0.161c-0.629-0.713-0.742-2.044-0.25-2.956c0.11-0.204,0.232-0.41,0.392-0.576
	c0.539-0.564,1.062-1.151,1.654-1.657c1.215-1.039,2.724-1.019,3.923,0.036c0.54,0.475,1.052,0.988,1.525,1.529
	C24.482,309.041,24.482,310.567,23.401,311.79z"/>
</svg>
